<?xml version="1.0" encoding="UTF-8"?>
<svg width="33px" height="38px" viewBox="0 0 33 38" version="1.1" xmlns="http://www.w3.org/2000/svg" xmlns:xlink="http://www.w3.org/1999/xlink">
    <!-- Generator: Sketch 50.2 (55047) - http://www.bohemiancoding.com/sketch -->
    <title>Combined Shape@1x</title>
    <desc>Created with Sketch.</desc>
    <defs></defs>
    <g id="Page-1" stroke="none" stroke-width="1" fill="none" fill-rule="evenodd">
        <g id="Landing-1" transform="translate(-1483.000000, -484.000000)" fill="#46AEC2" fill-rule="nonzero">
            <g id="Intro">
                <path d="M1485.36262,496.390825 C1486.60889,496.390825 1487.6279,497.411491 1487.62956,498.656029 L1487.62956,508.518755 C1487.62956,509.764948 1486.61213,510.785614 1485.36428,510.785614 L1485.26528,510.785614 C1484.01743,510.785614 1483,509.768258 1483,508.518755 L1483,498.656105 C1483,497.411491 1484.01743,496.390825 1485.26528,496.390825 L1485.36262,496.390825 Z M1488.71349,512.325565 L1488.71349,496.752662 L1509.69807,496.752662 L1509.69807,512.325565 C1509.69807,513.471181 1508.76173,514.404209 1507.61777,514.404209 L1505.39146,514.404209 L1505.39146,519.731486 C1505.39146,520.980989 1504.37403,522 1503.1246,522 L1503.02884,522 C1501.78422,522 1500.76032,520.982569 1500.76032,519.731486 L1500.76032,514.404209 L1497.65123,514.404209 L1497.65123,519.731486 C1497.65123,520.980989 1496.63222,522 1495.38272,522 L1495.28538,522 C1494.04076,522 1493.0201,520.982569 1493.0201,519.731486 L1493.0201,514.404209 L1490.79537,514.404209 C1489.64975,514.404209 1488.71349,513.471181 1488.71349,512.325565 Z M1504.4324,487.308644 C1507.61935,488.871313 1509.77104,491.816485 1509.77096,495.194883 C1509.77096,495.402582 1509.75961,495.607046 1509.74178,495.809855 L1488.67452,495.809855 C1488.65669,495.607046 1488.64368,495.402582 1488.64368,495.194883 C1488.64368,491.816485 1490.79371,488.871313 1493.98231,487.308644 L1492.2136,484.580951 C1492.10001,484.408909 1492.15034,484.173602 1492.32396,484.061666 C1492.49758,483.948075 1492.73454,483.995166 1492.84648,484.172022 L1494.67522,486.993899 C1496.05283,486.430832 1497.58466,486.114432 1499.20736,486.114432 C1500.82848,486.114432 1502.36354,486.430832 1503.73792,486.993899 L1505.5699,484.172022 C1505.68191,483.995166 1505.91721,483.948075 1506.08918,484.061666 C1506.2628,484.173677 1506.31313,484.408909 1506.19954,484.580951 L1504.4324,487.308644 Z M1513.1462,496.390825 C1514.39405,496.390825 1515.41314,497.411491 1515.41314,498.656029 L1515.41314,508.518755 C1515.41314,509.764948 1514.39729,510.785614 1513.14786,510.785614 L1513.0521,510.785614 C1511.8059,510.785614 1510.78358,509.768258 1510.78358,508.518755 L1510.78358,498.656105 C1510.78358,497.411491 1511.80425,496.390825 1513.0521,496.390825 L1513.1462,496.390825 Z M1494.32309,492.192915 C1494.88292,492.192915 1495.33728,491.741861 1495.33728,491.180374 C1495.33728,490.618887 1494.88615,490.169412 1494.32309,490.169412 C1493.76326,490.169412 1493.30889,490.618963 1493.30889,491.180374 C1493.30889,491.741785 1493.76326,492.192915 1494.32309,492.192915 Z M1504.09005,492.192915 C1504.65146,492.192915 1505.10259,491.741785 1505.10259,491.180374 C1505.10259,490.618887 1504.65146,490.169412 1504.09005,490.169412 C1503.53022,490.169412 1503.07585,490.618963 1503.07585,491.180374 C1503.07585,491.741785 1503.53022,492.192915 1504.09005,492.192915 Z" id="Combined-Shape"></path>
            </g>
        </g>
    </g>
</svg>