<?xml version="1.0" encoding="UTF-8"?>
<svg width="29px" height="36px" viewBox="0 0 29 36" version="1.1" xmlns="http://www.w3.org/2000/svg" xmlns:xlink="http://www.w3.org/1999/xlink">
    <!-- Generator: Sketch 50.2 (55047) - http://www.bohemiancoding.com/sketch -->
    <title>Shape@1x</title>
    <desc>Created with Sketch.</desc>
    <defs></defs>
    <g id="Page-1" stroke="none" stroke-width="1" fill="none" fill-rule="evenodd">
        <g id="Landing-1" transform="translate(-1485.000000, -427.000000)" fill="#46AEC2" fill-rule="nonzero">
            <g id="Intro">
                <path d="M1513.91352,453.202 C1513.81752,453.473 1513.72452,453.764 1513.61752,454.05 C1512.73152,456.449 1511.38652,458.579 1509.75452,460.531 C1509.43952,460.911 1509.07252,461.255 1508.69352,461.574 C1507.94452,462.208 1507.08252,462.591 1506.08552,462.626 C1505.33652,462.65 1504.61752,462.514 1503.92452,462.232 C1503.42252,462.027 1502.92852,461.798 1502.41952,461.613 C1500.76752,461.013 1499.12452,461.092 1497.49952,461.734 C1496.91352,461.966 1496.33552,462.222 1495.73852,462.423 C1495.04652,462.655 1494.32852,462.749 1493.59752,462.611 C1492.95952,462.492 1492.40152,462.195 1491.88352,461.812 C1491.24052,461.336 1490.70052,460.756 1490.19552,460.142 C1487.80452,457.226 1486.19952,453.929 1485.42452,450.236 C1485.09052,448.648 1484.93052,447.047 1485.02852,445.424 C1485.14352,443.478 1485.59552,441.625 1486.63552,439.955 C1487.94052,437.856 1489.78152,436.481 1492.20352,435.914 C1493.66052,435.571 1495.07752,435.711 1496.46652,436.246 C1497.19752,436.526 1497.93052,436.803 1498.66452,437.078 C1499.34052,437.332 1500.01352,437.332 1500.69052,437.073 C1501.43952,436.787 1502.18952,436.502 1502.94152,436.223 C1503.71252,435.942 1504.49652,435.712 1505.31452,435.647 C1506.53852,435.548 1507.73252,435.707 1508.89452,436.096 C1510.54152,436.647 1511.88152,437.622 1512.89352,439.042 C1512.92052,439.081 1512.95052,439.124 1512.97052,439.155 C1510.41852,440.934 1508.96552,443.284 1509.17652,446.466 C1509.38952,449.65 1511.10352,451.804 1513.91352,453.202 Z M1499.59852,435.253 C1500.35152,435.273 1501.07552,435.128 1501.77252,434.851 C1504.95152,433.589 1506.61352,430.226 1506.56352,427.654 C1506.55952,427.447 1506.54552,427.24 1506.53652,427 C1506.20952,427.049 1505.91152,427.072 1505.62552,427.144 C1503.30452,427.713 1501.51852,429.008 1500.34452,431.105 C1499.65752,432.333 1499.27552,433.637 1499.39252,435.062 C1499.40052,435.213 1499.45552,435.251 1499.59852,435.253 Z" id="Shape"></path>
            </g>
        </g>
    </g>
</svg>