<?xml version="1.0" encoding="UTF-8"?>
<svg width="131px" height="51px" viewBox="0 0 131 51" version="1.1" xmlns="http://www.w3.org/2000/svg" xmlns:xlink="http://www.w3.org/1999/xlink">
    <!-- Generator: Sketch 49.1 (51147) - http://www.bohemiancoding.com/sketch -->
    <title>Qikoo Typeface-03</title>
    <desc>Created with Sketch.</desc>
    <defs></defs>
    <g id="Page-1" stroke="none" stroke-width="1" fill="none" fill-rule="evenodd">
        <g id="Landing-1" transform="translate(-407.000000, -16.000000)" fill-rule="nonzero">
            <g id="Qikoo-Typeface-03" transform="translate(407.000000, 16.000000)">
                <path d="M130.807285,16.8128166 C130.802619,13.0979276 127.798901,10.0694929 124.049935,9.9998613 L130.699715,3.66745574 C130.951613,3.42758289 131.055209,3.07279006 130.97148,2.73672427 C130.887751,2.40065849 130.629416,2.13437614 130.293789,2.03818321 C129.958162,1.94199028 129.596231,2.03050076 129.344333,2.27037361 L119.772561,11.3775664 C119.613488,11.4977039 119.458327,11.6268839 119.307077,11.7651065 C119.180356,11.8804025 119.086581,12.0267804 119.035218,12.189463 C119.035218,12.2010892 119.035218,12.2127154 119.023483,12.2243416 C119.011748,12.2359678 119.023483,12.2456563 119.013704,12.2572825 C118.867744,12.6787871 119.030812,13.1445738 119.408862,13.3860103 C119.786911,13.6274467 120.282436,13.582261 120.609651,13.276513 L121.028196,12.8599074 C122.754279,11.6204614 125.089458,11.6225474 126.813283,12.8650752 C128.537107,14.1076029 129.257831,16.3082038 128.598778,18.3167621 C127.939725,20.3253203 126.050666,21.6853841 123.918895,21.6861336 L113.175588,21.6861336 C111.202168,21.6861336 110.087352,20.8064175 108.816071,19.4228993 C109.228748,19.0353592 109.649249,18.6478191 110.073661,18.2970953 C110.471355,17.947848 110.514729,17.3478649 110.171332,16.946031 C109.827935,16.5441972 109.223482,16.4876206 108.810203,16.8186297 C108.160872,17.3631236 107.538922,17.9502469 106.938486,18.5199308 C105.162603,20.1999173 103.482556,21.7888317 101.571722,21.7888317 L86.3417693,21.7888317 C88.3316711,19.8710168 88.9620374,16.9556735 87.939722,14.3985564 C86.9174066,11.8414394 84.4430639,10.1444453 81.667365,10.0967463 L88.3171452,3.76434077 C88.7065459,3.39352947 88.718805,2.78018003 88.3445267,2.39438645 C87.9702484,2.00859287 87.3511642,1.99644734 86.9617636,2.36725864 L77.3899917,11.4744515 C77.2296147,11.5945889 77.0744531,11.7237689 76.9245071,11.8619916 C76.7977865,11.9772875 76.7040114,12.1236654 76.6526484,12.286348 C76.6526484,12.2979742 76.6526484,12.3096004 76.6389577,12.3231643 C76.625267,12.3367282 76.6389577,12.344479 76.6291786,12.3541675 C76.4816131,12.7759923 76.6440899,13.2431084 77.0226249,13.4853144 C77.40116,13.7275203 77.8977423,13.6821038 78.2251259,13.3753357 L78.6436709,12.9761694 C80.3699482,11.7365835 82.7054321,11.7388228 84.4292845,12.9817168 C86.1531369,14.2246108 86.8735137,16.4256407 86.2138493,18.4342524 C85.5541848,20.442864 83.6644255,21.8024854 81.5324136,21.8023956 L65.8741371,21.8023956 C67.5618969,19.8566475 67.6877449,17.0197375 66.1787903,14.9347951 C64.6698357,12.8498527 61.9174399,12.0576271 59.515782,13.0169729 C57.1141241,13.9763187 55.6860964,16.4384207 56.0588081,18.977237 C56.4315198,21.5160533 58.5083046,23.4731183 61.0862953,23.7149061 L57.1746599,27.3093407 C56.9113164,27.5429557 56.7957234,27.8991864 56.8723222,28.2410748 C56.948921,28.5829632 57.2057869,28.8572847 57.5441641,28.9585724 C57.8825413,29.0598601 58.2497517,28.9723456 58.5046159,28.7296753 L63.9339659,23.7400962 L81.5363252,23.7400962 C81.6790999,23.7400962 81.817963,23.7400962 81.9587819,23.7265323 C82.0053294,23.7344163 82.0523921,23.7389494 82.0996007,23.7400962 L101.563899,23.7400962 C103.856117,23.7400962 105.671116,22.3430141 107.386368,20.7734766 C108.659605,22.1686211 110.304448,23.6393358 113.167765,23.6393358 L123.913027,23.6393358 C125.741297,23.6408788 127.495191,22.9222776 128.78834,21.6418338 C130.081489,20.3613901 130.807805,18.6241515 130.807285,16.8128166 Z M57.9589428,18.169207 C57.9589428,16.1647927 59.5990342,14.5398938 61.6221894,14.5398938 C63.6453446,14.5398938 65.2854359,16.1647927 65.2854359,18.169207 C65.2854359,20.1736214 63.6453446,21.7985202 61.6221894,21.7985202 C60.6479027,21.7990372 59.7134561,21.4154194 59.0250819,20.7323311 C58.3367077,20.0492429 57.9509967,19.1228404 57.9530754,18.1575808 L57.9589428,18.169207 Z" id="Shape" fill="#FFFFFF"></path>
                <path d="M99.9483748,29 C100.529171,29 101,28.5522847 101,28 C101,27.4477153 100.529171,27 99.9483748,27 L91.0516252,27 C90.4708287,27 90,27.4477153 90,28 C90,28.5522847 90.4708287,29 91.0516252,29 L99.9483748,29 Z" id="Shape" fill="#FFFFFF"></path>
                <path d="M63.5029499,33 C58.8069004,33 55,36.9833351 55,41.897028 C55,46.8107208 58.8069004,50.7940559 63.5029499,50.7940559 C64.0490022,50.7940559 64.4916651,50.3308774 64.4916651,49.7595178 C64.4916651,49.1881582 64.0490022,48.7249797 63.5029499,48.7249797 C60.3921109,48.7258346 57.7132233,46.4288828 57.1026444,43.2371819 C56.4920656,40.0454811 58.1195842,36.8465736 60.9910555,35.5944628 C63.8625268,34.3423521 67.1794574,35.3852228 68.9157511,38.0860534 C70.6520448,40.7868841 70.3248763,44.3946326 68.1340915,46.7055612 L66.1942325,44.5868271 C65.9494414,44.320342 65.5873741,44.2107465 65.2444177,44.2993244 C64.9014614,44.3879023 64.6297193,44.6611964 64.5315541,45.0162594 C64.4333889,45.3713224 64.5237142,45.7542119 64.7685053,46.020697 L69.0397546,50.6823258 C69.2845456,50.9488109 69.646613,51.0584063 69.9895693,50.9698284 C70.3325256,50.8812506 70.6042676,50.6079565 70.7024329,50.2528935 C70.8005981,49.8978305 70.7102728,49.5149411 70.4654817,49.248456 L69.5004958,48.1973652 C71.9366845,45.6557114 72.6691098,41.8284639 71.3560511,38.5012642 C70.0429924,35.1740645 66.9432143,33.0026041 63.5029499,33 Z" id="Shape" fill="#FFFFFF"></path>
                <path d="M102.5,33 C97.8055796,33 94,36.8055796 94,41.5 C94,46.1944204 97.8055796,50 102.5,50 C107.19442,50 111,46.1944204 111,41.5 C111,36.8055796 107.19442,33 102.5,33 Z M102.5,48.0232558 C98.8973053,48.0232558 95.9767442,45.1026947 95.9767442,41.5 C95.9767442,37.8973053 98.8973053,34.9767442 102.5,34.9767442 C106.102695,34.9767442 109.023256,37.8973053 109.023256,41.5 C109.023256,43.230075 108.335986,44.8892907 107.112638,46.1126384 C105.889291,47.3359862 104.230075,48.0232558 102.5,48.0232558 Z" id="Shape" fill="#FFFFFF"></path>
                <path d="M122.5,33 C117.80558,33 114,36.8055796 114,41.5 C114,46.1944204 117.80558,50 122.5,50 C127.19442,50 131,46.1944204 131,41.5 C131,36.8055796 127.19442,33 122.5,33 Z M122.5,48.0232558 C118.897305,48.0232558 115.976744,45.1026947 115.976744,41.5 C115.976744,37.8973053 118.897305,34.9767442 122.5,34.9767442 C126.102695,34.9767442 129.023256,37.8973053 129.023256,41.5 C129.023256,45.1026947 126.102695,48.0232558 122.5,48.0232558 Z" id="Shape" fill="#FFFFFF"></path>
                <path d="M75,33 C74.4477153,33 74,33.4425093 74,33.9883721 L74,49.0116279 C74,49.5574907 74.4477153,50 75,50 C75.5522847,50 76,49.5574907 76,49.0116279 L76,33.9883721 C76,33.4425093 75.5522847,33 75,33 Z" id="Shape" fill="#FFFFFF"></path>
                <path d="M88.7750685,41.3684792 C87.7716501,40.9078625 86.6655821,40.6926981 85.5550106,40.7420782 L92.101914,34.7013602 C92.5107846,34.3232143 92.5236566,33.6977329 92.1306645,33.3043084 C91.7376723,32.9108839 91.0876341,32.8984981 90.6787634,33.2766439 L82.0536084,41.2499175 L82.0536084,33.9880141 C82.0536084,33.442349 81.5938925,33 81.0268042,33 C80.4597159,33 80,33.442349 80,33.9880141 L80,49.0058279 C80,49.551493 80.4597159,49.993842 81.0268042,49.993842 C81.5938925,49.993842 82.0536084,49.551493 82.0536084,49.0058279 L82.0536084,44.3740179 C83.7745321,42.7220584 85.9554642,42.2616439 87.9146066,43.1548086 C90.0606273,44.1289905 91.2291305,46.3757344 90.8923387,48.8852902 C90.8453829,49.2354498 90.9961361,49.5831148 91.287811,49.7973232 C91.5794859,50.0115317 91.9677701,50.0597402 92.3064008,49.923789 C92.6450314,49.7878379 92.8825624,49.4883814 92.9295182,49.1382218 C93.3669368,45.7611897 91.7425325,42.7141543 88.7750685,41.3684792 Z" id="Shape" fill="#FFFFFF"></path>
                <path d="M48.9802406,26.0084144 C48.9934397,26.0822476 49.0000527,26.1571498 48.9999984,26.2322014 L48.9999984,48.7641294 C49.0005239,49.0920663 48.8730896,49.4067261 48.6458406,49.6386129 C48.4185916,49.8704996 48.110225,50.0005346 47.7888468,49.9999983 L25.7115087,49.9999983 C25.6379648,49.9999023 25.5645739,49.9931556 25.4921974,49.9798374 C25.1629011,49.993278 24.8336048,49.9999983 24.5043086,49.9999983 C14.5947692,50.0016293 5.66009827,43.9116982 1.86677419,34.5701045 C-1.92654989,25.2285109 0.168559937,14.4750614 7.17509736,7.32438015 C14.1816348,0.173698912 24.7196773,-1.96590278 33.875051,1.90332916 C43.0304246,5.77256109 48.9999983,14.8885897 48.9999984,25.0003646 C48.9999984,25.3390693 48.9934125,25.6750859 48.9802406,26.0084144 Z M24.500357,44.5565297 C35.0849175,44.5565297 43.6653991,35.8009364 43.6653991,25.0003646 C43.6653991,14.1997929 35.0849175,5.4441995 24.500357,5.4441995 C13.9157966,5.4441995 5.33531502,14.1997929 5.33531502,25.0003646 C5.33531502,35.8009364 13.9157966,44.5565297 24.500357,44.5565297 Z" id="Combined-Shape" fill="#46AEC2"></path>
            </g>
        </g>
    </g>
</svg>