<?xml version="1.0" encoding="UTF-8"?>
<svg width="123px" height="50px" viewBox="0 0 123 50" version="1.1" xmlns="http://www.w3.org/2000/svg" xmlns:xlink="http://www.w3.org/1999/xlink">
    <!-- Generator: Sketch 58 (84663) - https://sketch.com -->
    <title>Group</title>
    <desc>Created with Sketch.</desc>
    <g id="Page-1" stroke="none" stroke-width="1" fill="none" fill-rule="evenodd">
        <g id="Landing-1" transform="translate(-407.000000, -15.000000)" fill-rule="nonzero">
            <g id="Group" transform="translate(407.000000, 15.000000)">
                <path d="M88.8571907,29.9999984 C83.3343432,29.9999984 78.8571907,34.4771509 78.8571907,39.9999984 C78.8571907,45.5228459 83.3343432,49.9999984 88.8571907,49.9999984 C94.3800382,49.9999984 98.8571907,45.5228459 98.8571907,39.9999984 C98.8571907,34.4771509 94.3800382,29.9999984 88.8571907,29.9999984 Z M88.8571907,47.674417 C84.6187263,47.674417 81.1827721,44.2384627 81.1827721,39.9999984 C81.1827721,35.761534 84.6187263,32.3255798 88.8571907,32.3255798 C93.095655,32.3255798 96.5316093,35.761534 96.5316093,39.9999984 C96.5316093,42.0353807 95.7230568,43.9873991 94.2838241,45.4266318 C92.8445914,46.8658645 90.892573,47.674417 88.8571907,47.674417 L88.8571907,47.674417 Z" id="Shape" fill="#FFFFFF"></path>
                <path d="M112.386602,29.9999984 C106.863755,29.9999984 102.386602,34.4771509 102.386602,39.9999984 C102.386602,45.5228459 106.863755,49.9999984 112.386602,49.9999984 C117.90945,49.9999984 122.386602,45.5228459 122.386602,39.9999984 C122.386602,34.4771509 117.90945,29.9999984 112.386602,29.9999984 Z M112.386602,47.674417 C108.148138,47.674417 104.712184,44.2384627 104.712184,39.9999984 C104.712184,35.761534 108.148138,32.3255798 112.386602,32.3255798 C116.625067,32.3255798 120.061021,35.761534 120.061021,39.9999984 C120.061021,44.2384627 116.625067,47.674417 112.386602,47.674417 Z" id="Shape" fill="#FFFFFF"></path>
                <path d="M56.1764706,29.9999984 C55.5267238,29.9999984 55,30.5205975 55,31.1627891 L55,48.8372077 C55,49.4793992 55.5267238,49.9999984 56.1764706,49.9999984 C56.8262174,49.9999984 57.3529412,49.4793992 57.3529412,48.8372077 L57.3529412,31.1627891 C57.3529412,30.5205975 56.8262174,29.9999984 56.1764706,29.9999984 Z" id="Shape" fill="#FFFFFF"></path>
                <path d="M72.32361,39.8452679 C71.1431178,39.3033661 69.8418613,39.0502314 68.5353066,39.1083257 L76.2375459,32.0015986 C76.7185701,31.5567211 76.7337137,30.8208606 76.27137,30.3580082 C75.8090262,29.8951558 75.0442754,29.8805843 74.5632511,30.3254618 L64.4160098,39.7057836 L64.4160098,31.1623678 C64.4160098,30.5204089 63.8751676,29.9999984 63.2080049,29.9999984 C62.5408422,29.9999984 62,30.5204089 62,31.1623678 L62,48.8303841 C62,49.4723431 62.5408422,49.9927536 63.2080049,49.9927536 C63.8751676,49.9927536 64.4160098,49.4723431 64.4160098,48.8303841 L64.4160098,43.3811959 C66.4406261,41.4377142 69.0064285,40.89605 71.3113019,41.946832 C73.8360321,43.0929283 75.2107417,45.7361565 74.8145161,48.688575 C74.759274,49.1005275 74.9366307,49.5095452 75.2797777,49.7615551 C75.6229246,50.0135651 76.0797296,50.0702809 76.4781186,49.9103384 C76.8765076,49.7503959 77.1559558,49.3980941 77.2111979,48.9861416 C77.7258079,45.0131627 75.8147442,41.4284152 72.32361,39.8452679 Z" id="Shape" fill="#FFFFFF"></path>
                <path d="M49.9802372,26.0118577 C49.9935485,26.0855491 50,26.160294 50,26.2351779 L50,48.7648221 C50,49.446992 49.446992,50 48.7648221,50 L26.2351779,50 C26.1603005,50 26.0855688,49.9934015 26.0118577,49.9802372 C25.6758893,49.9934124 25.3386034,50 25,50 C11.1928813,50 0,38.8071187 0,25 C0,11.1928813 11.1928813,0 25,0 C38.8071187,0 50,11.1928813 50,25 C50,25.3386034 49.9934124,25.6758893 49.9802372,26.0118577 Z M25,44.5573123 C35.8055712,44.5573123 44.5652174,35.7976661 44.5652174,24.9920949 C44.5652174,14.1865237 35.8055712,5.42687747 25,5.42687747 C14.1944288,5.42687747 5.43478261,14.1865237 5.43478261,24.9920949 C5.43478261,35.7976661 14.1944288,44.5573123 25,44.5573123 L25,44.5573123 Z" id="Combined-Shape" fill="#46AEC2"></path>
            </g>
        </g>
    </g>
</svg>